Coordinates
version=1
nRows=14
nColumns=28
inDegrees=yes

Units are S.I. units (second, meters, Newtons, ...)
Angles are in degrees.

endheader
time	pelvis_tilt	pelvis_list	pelvis_rotation	pelvis_tx	pelvis_ty	pelvis_tz	hip_flexion_r	hip_adduction_r	hip_rotation_r	knee_angle_r	ankle_angle_r	subtalar_angle_r	mtp_angle_r	hip_flexion_l	hip_adduction_l	hip_rotation_l	knee_angle_l	socket_flexion	socket_adduction	socket_rotation	socket_tx	socket_ty	socket_tz	foot_flex	lumbar_extension	lumbar_bending	lumbar_rotation
      0.63333333	      2.05266311	     -2.86114459	      6.17490406	     -0.00011209	      0.99125748	      0.26624654	     21.77973592	      3.45725195	     -8.47274937	     -5.64940752	     16.83742974	    -16.74683989	    -16.37777898	    -26.73669660	     -5.40879076	     -3.67744953	     -0.26760106	      4.04550089	      0.81197880	     20.30075888	      0.00000000	      0.00175993	      0.00000000	      8.15882059	    -12.64660990	      3.32534042	     -2.32840739
      0.63750000	      1.98202444	     -2.87602271	      6.08846232	      0.00006949	      0.99110221	      0.26626320	     21.89679078	      3.47407126	     -8.52546009	     -5.72687025	     16.52635507	    -16.81932813	    -14.89427672	    -26.60568922	     -5.37560777	     -4.00017443	     -0.52995312	      3.87085857	      0.73506789	     20.55220827	      0.00000000	      0.00172717	      0.00000000	      8.16125108	    -12.53962567	      3.32135591	     -2.12047804
      0.64166667	      2.02873461	     -2.97148635	      6.21812689	      0.00647361	      0.99029516	      0.26647203	     22.01057496	      3.59673917	     -8.24063732	     -6.47180383	     16.26210750	    -16.80807362	    -14.89025574	    -26.84384519	     -5.57242049	     -3.88874808	     -0.75503396	      3.99212071	      0.72343548	     20.55245227	      0.00000000	      0.00184008	      0.00000000	      8.11400319	    -12.50651643	      3.52744835	     -2.14979215
      0.64583333	      2.10528155	     -3.18246842	      6.12528255	      0.01278975	      0.98935140	      0.26695782	     22.34702110	      3.88122821	     -8.16906007	     -7.67082858	     15.78874505	    -16.98149794	    -14.79343875	    -27.11612131	     -5.76773688	     -4.01108399	     -1.08333856	      4.06391459	      0.68480811	     20.31750068	      0.00000000	      0.00164831	      0.00000000	      8.01503695	    -12.55483416	      3.84324708	     -2.20218283
      0.65000000	      2.13470741	     -3.37050879	      6.10119570	      0.01921062	      0.98842416	      0.26729094	     22.64176202	      4.11730189	     -8.02416401	     -8.72701842	     15.33626459	    -17.10646387	    -14.57496853	    -27.31444883	     -5.96877709	     -4.12366389	     -1.42329316	      4.13570592	      0.66311961	     20.25631337	      0.00000000	      0.00151760	      0.00000000	      7.90760303	    -12.49955932	      4.14805322	     -2.17419470
      0.65416667	      2.17532127	     -3.50519038	      6.20200722	      0.02564997	      0.98771772	      0.26761518	     22.78049646	      4.28928775	     -7.73040107	     -9.53984866	     15.02368699	    -17.08616624	    -14.51231870	    -27.49900067	     -6.19735144	     -4.04007577	     -1.71519261	      4.27946463	      0.67054990	     20.27840528	      0.00000000	      0.00155120	      0.00000000	      7.79595384	    -12.47720248	      4.37701200	     -2.16110075
      0.65833333	      2.24352360	     -3.74238221	      6.10038184	      0.03200851	      0.98686792	      0.26818768	     23.09386689	      4.60818635	     -7.61698323	    -10.70257198	     14.52643514	    -17.18788833	    -14.38310616	    -27.70590007	     -6.41900066	     -4.16299990	     -2.13783192	      4.34707406	      0.64618411	     20.04276728	      0.00000000	      0.00127374	      0.00000000	      7.60237391	    -12.51002802	      4.70069024	     -2.14767813
      0.66250000	      2.02686730	     -3.91021657	      5.99174850	      0.03881767	      0.98565061	      0.26864215	     23.65148491	      4.77964445	     -7.65898871	    -11.72127507	     11.75872342	    -18.13294826	     -5.26751691	    -27.19960482	     -6.58424998	     -4.98430753	     -3.83979288	      3.65803811	      0.28319963	     20.59625940	      0.00000000	      0.00109170	      0.00000000	      7.43788754	    -12.12073478	      4.92288009	     -1.91832747
      0.66666667	      2.11978301	     -4.11577620	      5.94663555	      0.04525544	      0.98503313	      0.26920789	     23.84477943	      5.05869848	     -7.50388379	    -12.75097394	     11.38559803	    -18.15201053	     -5.29098205	    -27.41411370	     -6.80883694	     -4.96913326	     -4.21900525	      3.80709099	      0.29430528	     20.37160304	      0.00000000	      0.00093099	      0.00000000	      7.18983445	    -12.15703307	      5.21906443	     -1.91136262
      0.67083333	      2.19218070	     -4.35213676	      5.87565426	      0.05180366	      0.98442429	      0.26973251	     24.06296084	      5.36200880	     -7.40212796	    -13.80222981	     10.99587512	    -18.21849415	     -5.26603113	    -27.57998541	     -7.04382898	     -5.03449985	     -4.68147527	      3.93167750	      0.28143599	     20.17701031	      0.00000000	      0.00076854	      0.00000000	      6.94558944	    -12.15180999	      5.55426192	     -1.83997942
      0.67500000	      2.26555817	     -4.53515486	      5.90049907	      0.05829799	      0.98397288	      0.27029357	     24.18048879	      5.61327733	     -7.15562085	    -14.69026931	     10.70377578	    -18.19963637	     -5.25795963	    -27.71528069	     -7.29457696	     -4.96564825	     -5.09109379	      4.13592201	      0.30624607	     20.09517215	      0.00000000	      0.00069260	      0.00000000	      6.69898113	    -12.15554408	      5.82170119	     -1.80570596
      0.67916667	      2.04754225	     -4.82222557	      5.66218120	      0.06485352	      0.98297831	      0.27115415	     24.73155935	      6.01547982	     -6.87353196	    -15.75672449	      9.67704842	    -18.96421637	     -3.63179774	    -27.00450858	     -7.56548122	     -5.80026480	     -7.29146008	      3.25159935	     -0.11300570	     20.45779991	      0.00000000	      0.00042924	      0.00000000	      6.35551674	    -11.82238144	      6.11958055	     -1.49421864
      0.68333333	      2.15034567	     -5.02273385	      5.65087069	      0.07137066	      0.98265105	      0.27176849	     24.81893734	      6.29400776	     -6.66183121	    -16.66403039	      9.41232382	    -18.92593889	     -3.63008510	    -27.15346203	     -7.81203571	     -5.70548032	     -7.71368375	      3.50320195	     -0.05959085	     20.28416224	      0.00000000	      0.00030076	      0.00000000	      6.04570070	    -11.85949441	      6.39662328	     -1.48469114
      0.68750000	      2.16539069	     -5.35168802	      5.49564387	      0.07799840	      0.98213731	      0.27251534	     25.06377901	      6.70930312	     -6.64554387	    -17.65936741	      8.76710802	    -19.26363967	     -2.64415597	    -26.80527611	     -8.16524468	     -6.24210236	     -9.47464286	      2.92680033	     -0.34366344	     20.37721560	      0.00000000	      0.00018380	      0.00000000	      5.65750535	    -11.78152826	      6.79456297	     -1.28374578
